<?xml version="1.0" encoding="UTF-8" standalone="no"?>
<!-- Created with Inkscape (http://www.inkscape.org/) -->

<svg
   xmlns:osb="http://www.openswatchbook.org/uri/2009/osb"
   xmlns:dc="http://purl.org/dc/elements/1.1/"
   xmlns:cc="http://creativecommons.org/ns#"
   xmlns:rdf="http://www.w3.org/1999/02/22-rdf-syntax-ns#"
   xmlns:svg="http://www.w3.org/2000/svg"
   xmlns="http://www.w3.org/2000/svg"
   xmlns:sodipodi="http://sodipodi.sourceforge.net/DTD/sodipodi-0.dtd"
   xmlns:inkscape="http://www.inkscape.org/namespaces/inkscape"
   width="108.81251mm"
   height="94.169952mm"
   viewBox="0 0 108.81251 94.169952"
   version="1.1"
   id="svg8"
   inkscape:version="0.92.5 (2060ec1f9f, 2020-04-08)"
   sodipodi:docname="back.svg">
  <defs
     id="defs2">
    <linearGradient
       id="linearGradient6314"
       osb:paint="solid">
      <stop
         style="stop-color:#a46000;stop-opacity:1;"
         offset="0"
         id="stop6312" />
    </linearGradient>
  </defs>
  <sodipodi:namedview
     id="base"
     pagecolor="#ffffff"
     bordercolor="#666666"
     borderopacity="1.0"
     inkscape:pageopacity="1"
     inkscape:pageshadow="2"
     inkscape:zoom="2.14"
     inkscape:cx="274.11213"
     inkscape:cy="320.92762"
     inkscape:document-units="mm"
     inkscape:current-layer="g6430"
     showgrid="false"
     showguides="true"
     inkscape:guide-bbox="true"
     inkscape:window-width="1866"
     inkscape:window-height="1016"
     inkscape:window-x="54"
     inkscape:window-y="27"
     inkscape:window-maximized="1"
     fit-margin-top="0"
     fit-margin-left="0"
     fit-margin-right="0"
     fit-margin-bottom="0"
     inkscape:pagecheckerboard="false" />
  <metadata
     id="metadata5">
    <rdf:RDF>
      <cc:Work
         rdf:about="">
        <dc:format>image/svg+xml</dc:format>
        <dc:type
           rdf:resource="http://purl.org/dc/dcmitype/StillImage" />
        <dc:title></dc:title>
      </cc:Work>
    </rdf:RDF>
  </metadata>
  <g
     inkscape:label="Layer 1"
     inkscape:groupmode="layer"
     id="layer1"
     transform="translate(0,-202.83005)">
    <g
       id="g6430"
       style="fill:#010101;fill-opacity:1;stroke:none">
      <path
         style="opacity:1;fill:#141414;fill-opacity:1;fill-rule:nonzero;stroke:none;stroke-width:6.96470022;stroke-linecap:round;stroke-linejoin:miter;stroke-miterlimit:4;stroke-dasharray:none;stroke-dashoffset:0;stroke-opacity:1"
         d="m 54.935546,233.79101 c 8.97917,5.1836 17.95834,10.36719 26.937499,15.55078 8.979821,-5.18359 17.959638,-10.36718 26.939455,-15.55078 0,-10.29492 0,-20.58984 0,-30.88476 -17.958983,-0.0254 -35.917963,-0.0508 -53.876954,-0.0762 0,10.32031 0,20.64062 0,30.96093 z"
         id="path1112-6-6"
         inkscape:connector-curvature="0" />
      <path
         style="opacity:1;fill:#141414;fill-opacity:1;fill-rule:nonzero;stroke:none;stroke-width:6.96470022;stroke-linecap:round;stroke-linejoin:miter;stroke-miterlimit:4;stroke-dasharray:none;stroke-dashoffset:0;stroke-opacity:1"
         d="m 27.466798,250.25781 c 0,10.36914 0,20.73828 0,31.10742 8.979818,5.18425 17.959636,10.36849 26.939457,15.55274 8.979162,-5.18425 17.958332,-10.36849 26.937502,-15.55274 0,-10.36914 -1.1e-5,-20.73828 0,-31.10742 -8.97917,-5.18359 -17.95834,-10.36719 -26.937502,-15.55078 -8.979821,5.18359 -17.959639,10.36719 -26.939457,15.55078 z"
         id="path1106-1-1"
         inkscape:connector-curvature="0" />
      <path
         style="opacity:1;fill:#141414;fill-opacity:1;fill-rule:nonzero;stroke:none;stroke-width:6.96470022;stroke-linecap:round;stroke-linejoin:miter;stroke-miterlimit:4;stroke-dasharray:none;stroke-dashoffset:0;stroke-opacity:1"
         d="m 82.402347,250.25781 c 0,10.36914 0,20.73828 0,31.10742 8.803378,5.08268 17.606773,10.16537 26.410153,15.24805 0,-20.53386 1e-5,-41.06771 0,-61.60156 -8.80338,5.08203 -17.606775,10.16406 -26.410153,15.24609 z"
         id="path1104-2-8"
         inkscape:connector-curvature="0" />
      <path
         style="opacity:1;fill:#141414;fill-opacity:1;fill-rule:nonzero;stroke:none;stroke-width:6.96470022;stroke-linecap:round;stroke-linejoin:miter;stroke-miterlimit:4;stroke-dasharray:none;stroke-dashoffset:0;stroke-opacity:1"
         d="m 0,233.79101 c 8.9791668,5.1836 17.958333,10.36719 26.937499,15.55078 8.979818,-5.18359 17.959636,-10.36718 26.939457,-15.55078 0,-10.32031 0,-20.64062 0,-30.96093 -17.958985,0 -35.917972,0 -53.876956,0 0,10.32031 0,20.64062 0,30.96093 z"
         id="path1102-7-7"
         inkscape:connector-curvature="0" />
      <path
         style="opacity:1;fill:#141414;fill-opacity:1;fill-rule:nonzero;stroke:none;stroke-width:6.96470022;stroke-linecap:round;stroke-linejoin:miter;stroke-miterlimit:4;stroke-dasharray:none;stroke-dashoffset:0;stroke-opacity:1"
         d="m 1.445313,297 c 16.995442,0 33.990886,0 50.986333,0 C 43.933594,292.09375 35.435548,287.1875 26.937499,282.28125 18.440104,287.1875 9.9427078,292.09375 1.445313,297 Z"
         id="path1092-0-9"
         inkscape:connector-curvature="0" />
      <path
         style="opacity:1;fill:#141414;fill-opacity:1;fill-rule:nonzero;stroke:none;stroke-width:6.96470022;stroke-linecap:round;stroke-linejoin:miter;stroke-miterlimit:4;stroke-dasharray:none;stroke-dashoffset:0;stroke-opacity:1"
         d="m 56.380856,297 c 16.99545,0 33.990889,0 50.986334,0 -8.498047,-4.90625 -16.996093,-9.8125 -25.494145,-14.71875 -8.49739,4.90625 -16.994788,9.8125 -25.492189,14.71875 z"
         id="path819-6-7-3-5-6-2"
         inkscape:connector-curvature="0" />
      <path
         style="opacity:1;fill:#141414;fill-opacity:1;fill-rule:nonzero;stroke:none;stroke-width:6.96470022;stroke-linecap:round;stroke-linejoin:miter;stroke-miterlimit:4;stroke-dasharray:none;stroke-dashoffset:0;stroke-opacity:1"
         d="m 0,296.61328 c 8.8027338,-5.08268 17.605469,-10.16537 26.408203,-15.24805 0,-10.36914 0,-20.73828 0,-31.10742 C 17.605469,245.17578 8.8027338,240.09375 0,235.01172 c 0,20.53385 0,41.0677 0,61.60156 z"
         id="path1104-2-2-0"
         inkscape:connector-curvature="0" />
    </g>
  </g>
</svg>
